<?xml version="1.0" encoding="utf-8"?>
<!-- Generator: Adobe Illustrator 18.1.0, SVG Export Plug-In . SVG Version: 6.00 Build 0)  -->
<svg version="1.1" id="Layer_1" xmlns="http://www.w3.org/2000/svg" xmlns:xlink="http://www.w3.org/1999/xlink" x="0px" y="0px"
	 viewBox="0 0 500 500" enable-background="new 0 0 500 500" xml:space="preserve">
<path fill="#010101" d="M400.5,0H269c-10.5,0-27.7,0-38.2,0H99.5c-10.5,0-19,8.6-19,19v470.6c0,6.8,2.7,10.3,6.8,10.3
	c2.3,0,5-1.2,7.9-3.6l140.4-117.5c4-3.3,9.3-5,14.6-5s10.6,1.7,14.6,5l140.4,117.5c2.9,2.4,5.6,3.6,7.9,3.6c4,0,6.8-3.7,6.8-10.3V19
	C419.6,8.5,411.1,0,400.5,0z"/>
</svg>
